<?xml version="1.0" encoding="utf-8"?>
<!-- Generator: Adobe Illustrator 21.1.0, SVG Export Plug-In . SVG Version: 6.00 Build 0)  -->
<!DOCTYPE svg PUBLIC "-//W3C//DTD SVG 1.1//EN" "http://www.w3.org/Graphics/SVG/1.1/DTD/svg11.dtd">
<svg version="1.1" id="icon" xmlns="http://www.w3.org/2000/svg" xmlns:xlink="http://www.w3.org/1999/xlink" x="0px" y="0px"
	 viewBox="0 0 600 600" enable-background="new 0 0 600 600" xml:space="preserve">
<path id="paperclip" fill="#4152AE" d="M417.8,282.5l0.4-43.6l-217.8-1.9c-36.1-0.3-65.6,28.7-65.9,64.8
	c-0.3,36.1,28.7,65.6,64.8,65.9l261.4,2.3c60.2,0.5,109.3-47.8,109.8-108c0.5-60.2-47.8-109.3-108-109.9L188,149.8l0,0
	c-0.2,0-0.4,0-0.6,0C103.6,149.1,35,216.5,34.3,300.4c-0.7,83.9,66.7,152.5,150.6,153.2c0.2,0,0.4,0,0.6,0l0,0l187.3,1.6l0.3-43.6
	l-187.3-1.6l0,0c-0.2,0-0.4,0-0.6,0c-59.7-0.5-107.9-49.5-107.4-109.3c0.5-59.7,49.5-107.9,109.2-107.4c0.2,0,0.4,0,0.6,0l0,0
	l274.5,2.4c36,0.3,65.1,29.9,64.8,65.9c-0.3,36-29.9,65.1-65.9,64.8l-261.4-2.3c-12-0.1-21.7-10-21.6-22c0.1-12,10-21.7,22-21.6
	L417.8,282.5z M417.8,282.5"/>
</svg>
