<?xml version="1.0" encoding="utf-8"?>
<!-- Generator: Adobe Illustrator 21.1.0, SVG Export Plug-In . SVG Version: 6.00 Build 0)  -->
<!DOCTYPE svg PUBLIC "-//W3C//DTD SVG 1.1//EN" "http://www.w3.org/Graphics/SVG/1.1/DTD/svg11.dtd">
<svg version="1.1" id="icon" xmlns="http://www.w3.org/2000/svg" xmlns:xlink="http://www.w3.org/1999/xlink" x="0px" y="0px"
	 viewBox="0 0 600 600" enable-background="new 0 0 600 600" xml:space="preserve">
<path id="PDF" fill="#4152AE" d="M278.5,197.5C281.5,197.5,281.5,197.5,278.5,197.5c3-12,6-18,6-27.1v-6c3-15,3-27,0-30.1v-3l-3-3
	c0,0,0,3-3,3C272.4,149.4,272.4,170.5,278.5,197.5L278.5,197.5z M188.3,404.9c-6,3-12,6-15,9c-21,18-36.1,39.1-39.1,48.1
	C152.2,459,170.3,441,188.3,404.9C191.3,404.9,191.3,404.9,188.3,404.9C191.3,404.9,188.3,404.9,188.3,404.9L188.3,404.9z
	 M464.8,359.8c-3-3-15-12-57.1-12h-6v3c21,9,42.1,15,57.1,15h9v-3C467.8,362.8,464.8,362.8,464.8,359.8L464.8,359.8z M509.9,29.2
	H89.1C56,29.2,29,56.3,29,89.3v420.8c0,33.1,27,60.1,60.1,60.1h420.8c33.1,0,60.1-27.1,60.1-60.1V89.3
	C570,56.3,542.9,29.2,509.9,29.2L509.9,29.2z M476.8,383.9c-6,3-15,6-27.1,6c-24,0-60.1-6-90.2-21c-51.1,6-90.2,12-120.2,24
	c-3,0-3,0-6,3C197.3,459,167.3,489,143.2,489c-6,0-9,0-12-3l-15-9v-3c-3-6-3-9-3-15c3-15,21-42.1,57.1-63.1c6-3,15-9,27.1-15
	c9-15,18-33.1,30.1-54.1c15-30.1,24-60.1,33.1-87.2c-12-36.1-18-57.1-6-99.2c3-12,12-24,24-24h6c6,0,12,3,18,6
	c21,21,12,69.1,0,108.2v3c12,33.1,30.1,60.1,48.1,78.1c9,6,15,12,27.1,18c15,0,27-3,39.1-3c36.1,0,60.1,6,69.1,21c3,6,3,12,3,18
	C485.8,368.8,482.8,377.8,476.8,383.9L476.8,383.9z M281.5,266.6c-6,21-18,45.1-30.1,72.1c-6,12-12,21-18,33.1h6
	c39.1-15,75.1-24,99.2-27c-6-3-9-6-12-9C311.5,317.7,293.5,293.7,281.5,266.6L281.5,266.6z M281.5,266.6"/>
</svg>
