<?xml version="1.0" encoding="utf-8"?>
<!-- Generator: Adobe Illustrator 21.1.0, SVG Export Plug-In . SVG Version: 6.00 Build 0)  -->
<!DOCTYPE svg PUBLIC "-//W3C//DTD SVG 1.1//EN" "http://www.w3.org/Graphics/SVG/1.1/DTD/svg11.dtd">
<svg version="1.1" id="icon" xmlns="http://www.w3.org/2000/svg" xmlns:xlink="http://www.w3.org/1999/xlink" x="0px" y="0px"
	 viewBox="0 0 600 600" enable-background="new 0 0 600 600" xml:space="preserve">
<path id="save" fill="#FFFFFF" d="M451,28H88.1c-33.3,0-60.5,27.2-60.5,60.5v423.4c0,33.3,27.2,60.5,60.5,60.5h423.4
	c33.3,0,60.5-27.2,60.5-60.5V149L451,28z M299.8,511.9c-51.4,0-90.7-39.3-90.7-90.7c0-51.4,39.3-90.7,90.7-90.7
	c51.4,0,90.7,39.3,90.7,90.7C390.5,472.6,351.2,511.9,299.8,511.9L299.8,511.9z M390.5,209.5H88.1v-121h302.4V209.5z M390.5,209.5"
	/>
</svg>
