<?xml version="1.0" encoding="utf-8"?>
<!-- Generator: Adobe Illustrator 21.1.0, SVG Export Plug-In . SVG Version: 6.00 Build 0)  -->
<!DOCTYPE svg PUBLIC "-//W3C//DTD SVG 1.1//EN" "http://www.w3.org/Graphics/SVG/1.1/DTD/svg11.dtd">
<svg version="1.1" id="icon" xmlns="http://www.w3.org/2000/svg" xmlns:xlink="http://www.w3.org/1999/xlink" x="0px" y="0px"
	 viewBox="0 0 600 600" enable-background="new 0 0 600 600" xml:space="preserve">
<g id="calendar_1_">
	<path d="M529.8,81h-44V51c0-22.1-17.9-40-40-40h-1.6c-22.1,0-40,17.9-40,40v30H198.1V51c0-22.1-17.9-40-40-40h-1.6
		c-22.1,0-40,17.9-40,40v30h-44c-22.1,0-40,17.9-40,40v428.5c0,22.1,17.9,40,40,40h457.3c22.1,0,40-17.9,40-40V121
		C569.8,98.9,551.9,81,529.8,81z M502.7,526.2H99.8V201.7h402.9V526.2z"/>
	<path d="M341.4,477.4h103.4c5.2,0,9.5-4.3,9.5-9.5V364.5c0-5.2-4.3-9.5-9.5-9.5H341.4c-5.2,0-9.5,4.3-9.5,9.5v103.4
		C331.9,473.2,336.1,477.4,341.4,477.4L341.4,477.4z M341.4,477.4"/>
</g>
</svg>
